<svg viewBox="0 0 200 200" xmlns="http://www.w3.org/2000/svg">
  <rect width="200" height="200" fill="#0f1117"/>
  <circle cx="100" cy="100" r="99" fill="#1e2235"/>
  <ellipse cx="100" cy="192" rx="72" ry="26" fill="white"/>
  <ellipse cx="100" cy="182" rx="65" ry="24" fill="white"/>
  <circle cx="14" cy="120" r="36" fill="white"/>
  <circle cx="20" cy="94" r="28" fill="white"/>
  <circle cx="26" cy="150" r="26" fill="white"/>
  <circle cx="186" cy="120" r="36" fill="white"/>
  <circle cx="180" cy="94" r="28" fill="white"/>
  <circle cx="174" cy="150" r="26" fill="white"/>
  <circle cx="100" cy="44" r="30" fill="white"/>
  <circle cx="72" cy="57" r="20" fill="white"/>
  <circle cx="128" cy="57" r="20" fill="white"/>
  <polygon points="38,76 51,8 91,64" fill="white"/>
  <polygon points="48,72 57,16 86,62" fill="#ffafc0"/>
  <polygon points="162,76 149,8 109,64" fill="white"/>
  <polygon points="152,72 143,16 114,62" fill="#ffafc0"/>
  <circle cx="100" cy="114" r="72" fill="white"/>
  <ellipse cx="100" cy="140" rx="37" ry="28" fill="#f5f5f5"/>
  <circle cx="74" cy="113" r="16" fill="#060606"/>
  <circle cx="126" cy="113" r="16" fill="#060606"/>
  <circle cx="80" cy="107" r="6" fill="white"/>
  <circle cx="132" cy="107" r="6" fill="white"/>
  <circle cx="81" cy="116" r="2.8" fill="white" opacity="0.42"/>
  <circle cx="133" cy="116" r="2.8" fill="white" opacity="0.42"/>
  <ellipse cx="100" cy="131" rx="11" ry="8.5" fill="#111"/>
  <ellipse cx="96" cy="128" rx="3.5" ry="2.5" fill="#2a2a2a" opacity="0.65"/>
  <line x1="100" y1="139.5" x2="100" y2="144" stroke="#0d0d0d" stroke-width="3" stroke-linecap="round"/>
  <path d="M79,144 Q100,160 121,144" fill="#0d0d0d"/>
  <rect x="85" y="143" width="11" height="7" rx="2.5" fill="white"/>
  <rect x="104" y="143" width="11" height="7" rx="2.5" fill="white"/>
  <ellipse cx="100" cy="156" rx="15" ry="11" fill="#e8455a"/>
  <line x1="100" y1="145" x2="100" y2="167" stroke="#c03050" stroke-width="3" stroke-linecap="round"/>
</svg>
